<svg id="clover" xmlns="http://www.w3.org/2000/svg" viewBox="0 0 24 24" fill="none" stroke="currentColor" stroke-width="2" stroke-linecap="round" stroke-linejoin="round">
  <path d="M12 12 C11 11 9.5 10 9.5 8.5 C9.5 7 10.5 6 12 7.5 C13.5 6 14.5 7 14.5 8.5 C14.5 10 13 11 12 12"/>
  <path d="M12 12 C11 11 9.5 10 9.5 8.5 C9.5 7 10.5 6 12 7.5 C13.5 6 14.5 7 14.5 8.5 C14.5 10 13 11 12 12" transform="rotate(90,12,12)"/>
  <path d="M12 12 C11 11 9.5 10 9.5 8.5 C9.5 7 10.5 6 12 7.5 C13.5 6 14.5 7 14.5 8.5 C14.5 10 13 11 12 12" transform="rotate(180,12,12)"/>
  <path d="M12 12 C11 11 9.5 10 9.5 8.5 C9.5 7 10.5 6 12 7.5 C13.5 6 14.5 7 14.5 8.5 C14.5 10 13 11 12 12" transform="rotate(270,12,12)"/>
  <path d="M12 17 L12 22"/>
</svg>
