<svg id="flower" xmlns="http://www.w3.org/2000/svg" viewBox="0 0 24 24" fill="none" stroke="currentColor" stroke-width="1.8" stroke-linecap="round" stroke-linejoin="round">
  <circle cx="12" cy="10" r="2"/>
  <path d="M12 8 A1.5 3 0 0 0 12 3 A1.5 3 0 0 1 12 8"/>
  <path d="M12 8 A1.5 3 0 0 0 12 3 A1.5 3 0 0 1 12 8" transform="rotate(72,12,10)"/>
  <path d="M12 8 A1.5 3 0 0 0 12 3 A1.5 3 0 0 1 12 8" transform="rotate(144,12,10)"/>
  <path d="M12 8 A1.5 3 0 0 0 12 3 A1.5 3 0 0 1 12 8" transform="rotate(216,12,10)"/>
  <path d="M12 8 A1.5 3 0 0 0 12 3 A1.5 3 0 0 1 12 8" transform="rotate(288,12,10)"/>
  <path d="M12 16 L12 22"/>
</svg>
